<svg xmlns="http://www.w3.org/2000/svg" width="150" height="100" viewBox="0 0 150 100">
  <defs>
    <style>
      .cls-1 {
        fill-rule: evenodd;
      }
    </style>
  </defs>
  <path id="Color_Fill_1" data-name="Color Fill 1" class="cls-1" d="M130,25l19,3c-2.184,7.986-12.321,8.432-13,18,1.2,1.334,2.887,13.054,3,16-8.468-.788-11.9-7.334-21-8V50l12-11V34c-1.139-1.139-.4,0-1-2-6.177-1.075-11.7-2.85-19-3l-1-3h1c1.139-1.139,0-.4,2-1,1.048-5.482,5.676-12.024,8-17,2.01,0.574.865-.12,2,1C123.874,10.644,129.331,22.007,130,25ZM100,15c1.048,5.482,5.676,12.024,8,17l19,3v2l-3,2-7,8-3,2v6c2.078,2.174,1.452,9.984,3,13h-1v1h-3V68l-4-1-1-2h-2V64h-2V63h-2V62h-2V61c-3.926-1.683-3.411,2.221-5-3,2.049-1.142,12.272-11.063,13-13V41c-3.122-1.817-3.387-2.982-9-3V37c-2.849-1.578-7.915.889-11-2-1.139-1.139-.4,0-1-2C93.014,29.186,93.013,16.894,100,15ZM75,22h2c1.166,0.731,1.273,3.667,2,5,2,3.664,5.01,7.277,6,12,6.538,0.145,15.22,1.834,20,4v1h-1c-1.667,2.939-10.064,11.309-13,13a56.571,56.571,0,0,1,3,19c-8.682-.827-11.64-7.541-21-8V64c3.528-1.791,20.394-14.861,9-18-2.137-1.955-12.673-2.993-17-3V39h2C69.452,33.338,73.552,28.358,75,22ZM63,46l18,3h1v3l-7,6-1,2H72l-2,3H69v4c1.508,1.649,2.951,12.4,3,16-8.468-.788-11.9-7.334-21-8V71L63,60V54l-3-1c-2.005-1.828-13.221-2.857-17-3l-1-3h1c1.139-1.139,0-.4,2-1,1.048-5.482,5.676-12.024,8-17,2.01,0.574.865-.12,2,1C57.058,31.807,62.273,42.669,63,46ZM60,56v2l-3,2-7,8-3,2v6c2.352,2.423,1.316,9.754,3,13H49v1H46c-2.312-2.666-11.534-7.52-16-8-2.312,2.666-11.534,7.52-16,8V89H13c1.835-5.021,2.906-12.621,3-19C13.219,68.442,3.836,59.2,3,56l20-3c1.128-6.472,5.2-11.97,8-17h1v1c2.9,1.949,7.31,12.264,9,16Zm-165,63h-7v-3h-20v5h25c2.436,4.651,2.081,10.665,2,18a13.3,13.3,0,0,0-4,3c-9.563.079-21.017,0.471-29-1q-0.5-1.5-1-3h-1v-7h8v3h19a12.71,12.71,0,0,0,1-5c-8.645.077-18.907,0.311-26-1q-0.5-1.5-1-3c-2.418-2.574-.595-12.115,0-15,6.69-3.472,21.083-2.075,31-2,1.139,1.139,0,.4,2,1C-105.082,111.437-104.963,115.193-105,119Zm7-11h34v8H-77v26h-8V116H-98v-8Zm37,34h-9v-1l16-33h9l17,34h-9c-1.063-2.472-2.856-4.854-4-7v-2h-1v-2h-1v-3l-2-1-1-5-2-1-1-4c-1.139,1.139-.4,0-1,2-2.747,2.446-3.271,6.463-5,10h-1v3h-1v2C-58.347,136.6-60.217,138.489-61,142Zm39-34H8a21.4,21.4,0,0,0,3,3v14c-1.139,1.139-.4,0-1,2l-3,1v1H4c1.132,4.752,4.8,7.772,6,13H2l-7-13h-9v13h-8V108Zm40,0h8l1,3h1l1,5h1v2h1v2h1v3h1l3,9h2l3-9h1v-3h1l1-4h1v-3h1c0.631-1.242.954-4.434,2-5h9c0.686,3.523,2.659,5.425,4,8l1,5h1l4,11c1.135-.844.145,0.127,1-1h1l1-4h1v-2h1v-3h1v-2h1l1-4h1v-3h1c0.634-1.251.949-4.426,2-5h8l-4,11H82v2H81v2H80v3H79l-1,4H77v3H76l-3,9H63L53,118H52v1H51v3H50l-1,4H48v3H47v2H46l-4,11H32l-4-11H27v-3H26l-1-4H24v-3H23v-2H22Zm77,1c8.317-1.488,20.1-1.012,30-1a13.3,13.3,0,0,0,3,4c0.078,9.256.417,20.315-1,28l-3,1c-1.7,1.6-24.276,1.587-26,0-2.453-.642-1.739-0.4-3-2H94V111C95.139,109.861,94.4,111,95,109Zm39-1c10.489-.08,23.118-0.632,32,1a105.91,105.91,0,0,1,1,17c-1.231.624-1.461,1.664-2,2l-5,1v1c2.36,2.086,2.382,5.057,4,8h1v2c0.329,0.52,1.37.838,2,2h-9l-7-13h-9v13h-8V108Zm40,0h34v7c-3.1,1.163-8.434,1.046-13,1v26h-8V116H174v-8Zm40,0h8v13h20V108h8v34h-8V129H222v13h-8V108Zm53,0v2c3.47,2.342,3.326,6.724,8,8v-1c2.134-1.709,5.241-5.949,6-9h10v1c-3.261,2.1-3.779,5.8-6,9l-3,2v2l-2,1v2l-2,1v16h-8V126c-2.693-1.759-3.181-4.309-5-7l-2-1v-2l-2-1v-2l-2-1-2-4h10Zm-281,8v5H3v-5H-14Zm116,0v12h1v-2c4.783-2.207,6.732-6.486,11-9v-1H102Zm40,0v5h18v-5H142Zm-22,18V122h-1l-11,12h12Z"/>
</svg>
