<?xml version="1.0" encoding="UTF-8" standalone="no"?>

<svg
   version="1.1"
   id="svg59"
   width="129"
   height="39"
   viewBox="0 0 129 39"
   sodipodi:docname="starworthy.png"
   xmlns:sodipodi="http://sodipodi.sourceforge.net/DTD/sodipodi-0.dtd"
   xmlns="http://www.w3.org/2000/svg"
   xmlns:svg="http://www.w3.org/2000/svg">
  <defs
     id="defs63" />
  <sodipodi:namedview
     id="namedview61"
     pagecolor="#ffffff"
     bordercolor="#000000"
     borderopacity="0.25"
     showgrid="false" />
  <g
     id="g65">
    <path
       style="fill:#f66342;stroke:none;stroke-width:0.3"
       d="M 77.4,0.42626263 74.1,5.5262626 c 1.1346,1.16298 6.0891,0.73893 5.8827,2.87754 C 79.8003,10.292123 77.1204,11.249783 76.8,13.326263 l 5.7,2.4 -0.5058,-5.4 L 85.5,6.1262626 80.217,4.7720926 77.4,0.42626263 m -6.6,2.09999997 -3,5.4 c 1.3446,0.50352 6.183,0.4584 5.7504,2.7046204 -0.3306,1.71828 -2.6019,2.89026 -3.3504,4.49538 l 6,2.4 -0.4632,-5.27268 L 79.2,8.2262626 74.1639,7.0447726 71.4,2.5262626 h -0.6 m -9,7.8000004 c 1.3836,0.0594 6.5034,0.20937 5.4087,2.70024 -0.756,1.72035 -2.7717,2.32596 -3.3087,4.19976 l 6,2.4 -0.4524,-5.1 3.4524,-4.5 C 68.5338,9.2036326 67.1571,8.9087626 65.4,4.6262626 c -1.7979,0.56223 -3.3207,3.90372 -3.6,5.7000004 m -3.3,-3.9000004 -3,5.7000004 c 1.425,0.26472 4.6149,0.06189 5.3742,1.56852 0.9054,1.79706 -2.4387,3.18285 -2.8359,4.68819 -0.3804,1.44216 4.4748,2.93196 5.5617,3.04329 L 63.0951,16.326503 66.6,12.126263 61.317,10.772093 58.5,6.4262626 m -6.6,2.1 -2.7639,4.4506804 -5.0361,1.24932 3.5301,4.2 -0.5301,5.1 5.1,-2.01714 5.1,1.71714 -0.5649,-5.01435 3.5649,-4.28565 c -4.6551,-0.58884 -5.4819,-1.42824 -7.8,-5.4000004 h -0.6 m -40.2,26.1000004 -0.3,1.5 -7.8,-0.9 c 0.08367,3.4581 6.77286,4.4829 9.20463,2.4774 1.02963,-0.8493 1.17507,-4.3395 0,-5.1237 -0.78903,-0.5265 -2.00706,-0.3534 -2.90463,-0.3537 H 5.7 v -1.5 l 7.8,0.9 c -0.0073,-0.8031 0.10023,-1.85493 -0.52269,-2.47731 -1.09146,-1.09056 -7.50276,-1.03623 -8.64723,-0.04167 -3.036513,2.63868 0.5568,5.45058 3.16992,5.51448 1.39851,0.0345 2.80107,0.0045 4.2,0.0045 m 3.9,-6 v 2.1 h 3.6 v 7.5 h 2.1 v -7.5 h 3.9 v -2.1 h -9.6 m 7.8,9.6 c 3.47328,-0.0123 4.51125,-4.0446 5.7,-6.9 h 0.3 c 1.1643,2.7819 2.3676,6.8883 5.7,6.9 -0.651,-2.2596 -3.6705,-10.85229 -6.81759,-9.41898 -0.88686,0.40392 -1.25952,1.69488 -1.62432,2.51898 -1.02933,2.325 -2.28171,4.5549 -3.25809,6.9 m 13.8,-9.6 v 9.6 h 2.1 v -3.6 c 3.5535,0.0126 3.405,3.5877 6.9,3.6 l -1.8,-3.9 c 2.0523,-0.0942 2.7513,-4.2474 1.1046,-5.3463 -1.7877,-1.19298 -6.1989,-0.3537 -8.3046,-0.3537 m 11.1,0 c 0.7161,2.1027 3.1521,10.2399 5.9697,9.5031 1.8993,-0.4965 3.0564,-5.1177 3.6303,-6.8031 h 0.3 c 1.2174,3.138 1.8993,6.897 5.7,6.9 l 3.9,-9.6 c -3.8952,0.04614 -3.4233,4.6281 -5.7,6.9 -0.3072,-1.728 -2.4045,-8.94444 -5.2053,-6.41898 -1.7514,1.57908 -1.824,4.69728 -3.4947,6.41898 -0.5154,-2.8914 -1.8882,-6.88863 -5.1,-6.9 m 22.5444,0.30834 c -1.3866,0.82104 -0.9444,3.13926 -0.9444,4.49166 0,1.1802 -0.3564,3.1065 0.4809,4.0698 1.11,1.2774 6.7653,1.2234 8.1507,0.3765 1.5684,-0.9591 1.5462,-7.2165 0.4458,-8.55093 -1.0251,-1.24266 -6.7992,-1.17675 -8.133,-0.38703 M 81.3,28.626263 v 9.6 h 2.1 v -3.6 c 3.5874,0.0027 3.5535,3.5604 6.9,3.6 l -1.8,-3.6 c 2.0715,-0.5541 3.3708,-4.38 1.1556,-5.69166 -1.9071,-1.12923 -6.1692,-0.30834 -8.3556,-0.30834 m 11.4,0 v 2.1 h 3.6 v 7.5 h 2.1 v -7.5 h 3.6 v -2.1 h -9.3 m 11.4,0 v 9.6 h 1.8 v -3.6 h 6 v 3.6 h 2.1 v -9.6 h -2.1 v 3.6 h -6 v -3.6 h -1.8 m 12,0 c 2.0037,3.5955 3.6,5.3553 3.6,9.6 h 2.4 c 0,-4.356 1.5126,-5.9367 3.6,-9.6 -2.4468,0.0019 -3.4353,0.75927 -4.5,3 h -0.6 c -1.101,-2.21283 -2.0541,-2.99811 -4.5,-3 m -71.7,3.6 h -5.1 v -1.5 c 1.7484,0 4.7301,-0.717 5.1,1.5 m 31.2,-1.5 -3.6,3.6 v -3.6 h 3.6 m 12.9,0 v 1.5 h -5.1 v -1.5 h 5.1 m -11.1,1.8 c 0,3.1323 -0.4677,3.6 -3.6,3.6 z"
       id="path177" />
  </g>
</svg>
