<svg xmlns="http://www.w3.org/2000/svg" width="440" height="50" viewBox="0 0 440 50">
  <defs>
    <style>
      .cls-1 {
        fill-rule: evenodd;
      }
    </style>
  </defs>
  <path id="Color_Fill_1" data-name="Color Fill 1" class="cls-1" d="M275-74l19,3c-2.184,7.986-12.321,8.432-13,18,1.2,1.334,2.887,13.054,3,16-8.468-.788-11.9-7.334-21-8v-4l12-11v-5c-1.139-1.139-.4,0-1-2-6.177-1.075-11.7-2.85-19-3l-1-3h1c1.139-1.139,0-.4,2-1,1.048-5.482,5.676-12.024,8-17,2.01,0.574.865-.12,2,1C268.874-88.356,274.331-76.993,275-74ZM245-84c1.048,5.482,5.676,12.024,8,17l19,3v2l-3,2-7,8-3,2v6c2.078,2.174,1.452,9.984,3,13h-1v1h-3v-1l-4-1-1-2h-2v-1h-2v-1h-2v-1h-2v-1c-3.926-1.683-3.411,2.221-5-3,2.049-1.142,12.272-11.063,13-13v-4c-3.122-1.817-3.387-2.982-9-3v-1c-2.849-1.578-7.915.889-11-2-1.139-1.139-.4,0-1-2C238.014-69.814,238.013-82.106,245-84Zm-25,7h2c1.166,0.731,1.273,3.667,2,5,2,3.664,5.01,7.277,6,12,6.538,0.145,15.22,1.834,20,4v1h-1c-1.667,2.939-10.065,11.309-13,13a56.576,56.576,0,0,1,3,19c-8.682-.827-11.64-7.541-21-8v-4c3.528-1.791,20.394-14.861,9-18-2.137-1.955-12.673-2.993-17-3v-4h2C214.452-65.662,218.552-70.642,220-77ZM208-53l18,3h1v3l-7,6-1,2h-2l-2,3h-1v4c1.508,1.649,2.951,12.4,3,16-8.468-.788-11.9-7.334-21-8v-4l12-11v-6l-3-1c-2-1.828-13.221-2.857-17-3l-1-3h1c1.139-1.139,0-.4,2-1,1.048-5.482,5.676-12.024,8-17,2.01,0.574.865-.12,2,1C202.058-67.193,207.273-56.331,208-53Zm-3,10v2l-3,2-7,8-3,2v6c2.352,2.423,1.316,9.754,3,13h-1v1h-3c-2.312-2.666-11.534-7.52-16-8-2.312,2.666-11.534,7.52-16,8v-1h-1c1.835-5.021,2.906-12.621,3-19-2.781-1.558-12.164-10.8-13-14l20-3c1.128-6.472,5.2-11.97,8-17h1v1c2.9,1.949,7.31,12.264,9,16ZM40,20H33V17H13v5H38c2.436,4.651,2.081,10.665,2,18a13.3,13.3,0,0,0-4,3c-9.563.079-21.017,0.471-29-1L6,39H5V32h8v3H32a12.7,12.7,0,0,0,1-5c-8.645.077-18.907,0.311-26-1L6,26c-2.418-2.574-.6-12.115,0-15,6.69-3.472,21.083-2.075,31-2,1.139,1.139,0,.4,2,1C39.918,12.437,40.037,16.193,40,20ZM47,9H81v8H68V43H60V17H47V9ZM84,43H75V42L91,9h9l17,34h-9c-1.063-2.472-2.856-4.854-4-7V34h-1V32h-1V29l-2-1-1-5-2-1-1-4c-1.139,1.139-.4,0-1,2-2.747,2.446-3.271,6.463-5,10H89v3H88v2C86.653,37.6,84.783,39.489,84,43ZM123,9h30a21.361,21.361,0,0,0,3,3V26c-1.139,1.139-.4,0-1,2l-3,1v1h-3c1.132,4.752,4.8,7.772,6,13h-8l-7-13h-9V43h-8V9Zm40,0h8l1,3h1q0.5,2.5,1,5h1v2h1v2h1v3h1l3,9h2l3-9h1V21h1q0.5-2,1-4h1V14h1c0.631-1.242.954-4.434,2-5h9c0.686,3.523,2.659,5.425,4,8q0.5,2.5,1,5h1l4,11c1.135-.844.145,0.127,1-1h1q0.5-2,1-4h1V26h1V23h1V21h1q0.5-2,1-4h1V14h1c0.634-1.251.949-4.426,2-5h8l-4,11h-1v2h-1v2h-1v3h-1q-0.5,2-1,4h-1v3h-1l-3,9H208L198,19h-1v1h-1v3h-1q-0.5,2-1,4h-1v3h-1v2h-1l-4,11H177l-4-11h-1V29h-1q-0.5-2-1-4h-1V22h-1V20h-1Zm77,1c8.317-1.488,20.1-1.012,30-1a13.294,13.294,0,0,0,3,4c0.078,9.256.417,20.315-1,28l-3,1c-1.7,1.6-24.276,1.587-26,0-2.453-.642-1.739-0.4-3-2h-1V12C240.139,10.861,239.4,12,240,10Zm39-1c10.489-.08,23.118-0.632,32,1a105.911,105.911,0,0,1,1,17c-1.231.624-1.461,1.664-2,2l-5,1v1c2.36,2.086,2.382,5.057,4,8h1v2c0.329,0.52,1.37.838,2,2h-9l-7-13h-9V43h-8V9Zm40,0h34v7c-3.1,1.163-8.434,1.046-13,1V43h-8V17H319V9Zm40,0h8V22h20V9h8V43h-8V30H367V43h-8V9Zm53,0v2c3.47,2.342,3.326,6.724,8,8V18c2.134-1.709,5.241-5.949,6-9h10v1c-3.261,2.1-3.779,5.8-6,9l-3,2v2l-2,1v2l-2,1V43h-8V27c-2.693-1.759-3.181-4.309-5-7l-2-1V17l-2-1V14l-2-1-2-4h10ZM131,17v5h17V17H131Zm116,0V29h1V27c4.783-2.207,6.732-6.486,11-9V17H247Zm40,0v5h18V17H287ZM265,35V23h-1L253,35h12Z"/>
</svg>
